# xmcd
#
# Track frame offsets:
#	150
#	18562
#	38214
#	54999
#	68604
#	89296
#	103947
#	123282
#	143219
#	154111
#	168478
#	184533
#	201838
#	214733
#	230433
#	260063
#
# Disc length: 3496 seconds
#
# Revision: 1
# Processed by: cddbd v1.5.1PL0 Copyright (c) Steve Scherf et al.
# Submitted via: audiograbber 1.83.01
#
DISCID=df0da610
DTITLE=Various Artist - PR02
DYEAR=1900
DGENRE=Karaoke
TTITLE0=Dixie Chicks - Ready To Run
TTITLE1=Shania Twain - Any Man Of Mine
TTITLE2=Wynonna - Tell Me Why
TTITLE3=Reba McEntire - Walk On
TTITLE4=The Judds - Born To be Blue
TTITLE5=Pam Tillis - Shake The Sugar Tree
TTITLE6=Trisha Yearwood - She's In Love With The Boy
TTITLE7=Garth Brooks - Friends In Low Places
TTITLE8=George Strait - Heartland
TTITLE9=Alan Jackson - Don't Rock The Jukebox
TTITLE10=Alabama - The Closer You Get
TTITLE11=John Michael Montgomery - Beer and Bones
TTITLE12=Randy Travis - A Better Class Of Loser
TTITLE13=Tim McGraw - Where The Green Grass Grows
TTITLE14=Clint Black - Wherever You Go
TTITLE15=data - Data Track
EXTD=
EXTT0=
EXTT1=
EXTT2=
EXTT3=
EXTT4=
EXTT5=
EXTT6=
EXTT7=
EXTT8=
EXTT9=
EXTT10=
EXTT11=
EXTT12=
EXTT13=
EXTT14=
EXTT15=
PLAYORDER=
